inDegrees=yes
name=IK-live
DataType=double
version=3
OpenSimVersion=4.1
endheader
time	pelvis_tilt	pelvis_list	pelvis_rotation	pelvis_tx	pelvis_ty	pelvis_tz	hip_flexion_r	hip_adduction_r	hip_rotation_r	knee_angle_r	ankle_angle_r	subtalar_angle_r	mtp_angle_r	hip_flexion_l	hip_adduction_l	hip_rotation_l	knee_angle_l	ankle_angle_l	subtalar_angle_l	mtp_angle_l	lumbar_extension	lumbar_bending	lumbar_rotation	neck_flex	neck_latbend	neck_rot	arm_flex_r	arm_add_r	arm_rot_r	elbow_flex_r	pro_sup_r	wrist_flex_r	wrist_dev_r	arm_flex_l	arm_add_l	arm_rot_l	elbow_flex_l	pro_sup_l	wrist_flex_l	wrist_dev_l
0	-5.873128523900948	14.00593494833157	-241.2601952080647	0.2341366603171506	0.04326292228651554	-1.326684523481465	-22.57117169827992	-1.591976316804377	-3.241458145969817	5.899560354604904	2.451982624139334	1.987972377786656	0	-24.74788768789517	-3.395140484746916	-11.58000132048591	9.793848132074926	-0.4439473045988533	4.250290820099795	0	-21.37711699760957	1.659277491615732	3.206407148933037	0	0	0	0.780322293026915	-15.17650201824436	33.3112418886336	7.010081387457907	24.8744856939127	0	0.01254755440834607	5.871289258568201	-13.22979719634585	43.8986556272672	6.824801404148348	33.48027139023684	0	0.01254755440834607
2.7333781	-5.50688195549073	13.51665866842354	-240.8579617427402	0.2341366603171506	0.04326292228651554	-1.326684523481465	-22.57117169827992	-1.591976316804377	-3.241458145969817	5.899560354604904	2.451982624139334	1.987972377786656	0	-24.74788768789517	-3.395140484746916	-11.58000132048591	9.793848132074926	-0.4439473045988533	4.250290820099795	0	-21.37711699760957	1.659277491615732	3.206407148933037	0	0	0	0.7807951691231898	-15.1764999997744	33.31066031325614	7.017092189631216	24.87588566464781	0	0.01317717995207059	5.871721177590794	-13.2298174454009	43.89779928953457	6.831997835194918	33.4809679644417	0	0.01317717995207059
2.9002616	-6.87186170520841	12.39458546463814	-240.056175886122	0.2341366603171506	0.04326292228651554	-1.326684523481465	-22.57117169827992	-1.591976316804377	-3.241458145969817	5.899560354604904	2.451982624139334	1.987972377786656	0	-24.74788768789517	-3.395140484746916	-11.58000132048591	9.793848132074926	-0.4439473045988533	4.250290820099795	0	-21.37711699760957	1.659277491615732	3.206407148933037	0	0	0	0.7815621813147774	-15.17649670819273	33.30970568044187	7.028981714621899	24.87822158243226	0	0.01423202657330392	5.87242125765132	-13.22985046636257	43.89638979941955	6.844206177054939	33.48212659905376	0	0.01423202657330392
3.0671509	-6.331522892219961	17.24438197637993	-251.589858337609	0.2341366603171506	0.04326292228651554	-1.326684523481465	-22.57117169827992	-1.591976316804377	-3.241458145969817	5.899560354604904	2.451982624139334	1.987972377786656	0	-24.74788768789517	-3.395140484746916	-11.58000132048591	9.793848132074926	-0.4439473045988533	4.250290820099795	0	-21.37711699760957	1.659277491615732	3.206407148933037	0	0	0	0.782682995879789	-15.17649185445582	33.30828240530906	7.04772558850796	24.88180077129804	0	0.01585948119106047	5.873443026180992	-13.22989915927125	43.89427875696022	6.863464536810495	33.48389260820091	0	0.01585948119106047
3.233087	6.648352713065488	20.16625771354235	-275.6108752128224	0.2341366603171506	0.04326292228651554	-1.326684523481465	-22.57117169827992	-1.591976316804377	-3.241458145969817	5.899560354604904	2.451982624139334	1.987972377786656	0	-24.74788768789517	-3.395140484746916	-11.58000132048591	9.793848132074926	-0.4439473045988533	4.250290820099795	0	-21.37711699760957	1.659277491615732	3.206407148933037	0	0	0	0.7836568964280841	-15.17648766305619	33.30706256000198	7.06315827121186	24.88481188253479	0	0.01722230891451585	5.874331603989129	-13.2299412072902	43.89247507717361	6.879311754443899	33.48538367683368	0	0.01722230891451585
3.4009925	1.322243738904138	17.5306870747914	-262.0560473896621	0.2341366603171506	0.04326292228651554	-1.326684523481465	-22.57117169827992	-1.591976316804377	-3.241458145969817	5.899560354604904	2.451982624139334	1.987972377786656	0	-24.74788768789517	-3.395140484746916	-11.58000132048591	9.793848132074926	-0.4439473045988533	4.250290820099795	0	-21.37711699760957	1.659277491615732	3.206407148933037	0	0	0	0.7844866788718541	-15.17648409911329	33.30602789319941	7.076057079954236	24.88734989767626	0	0.01836917449296255	5.875088894565574	-13.22997696059727	43.8909467906044	6.892553581446623	33.48664204303443	0	0.01836917449296255
3.5678495	13.62395146417293	26.40758619685725	-270.8263266812872	0.2341366603171506	0.04326292228651554	-1.326684523481465	-22.57117169827992	-1.591976316804377	-3.241458145969817	5.899560354604904	2.451982624139334	1.987972377786656	0	-24.74788768789517	-3.395140484746916	-11.58000132048591	9.793848132074926	-0.4439473045988533	4.250290820099795	0	-21.37711699760957	1.659277491615732	3.206407148933037	0	0	0	0.7855943440430416	-15.17647931984406	33.30463276887625	7.093852846753516	24.89081685463193	0	0.01994054004634958	5.876099171522385	-13.23002490624442	43.88888145090741	6.910824578068832	33.48835691220022	0	0.01994054004634958
3.7348302	51.74957187260641	13.04210419753068	-330.0237072801348	0.2341366603171506	0.04326292228651554	-1.326684523481465	-22.57117169827992	-1.591976316804377	-3.241458145969817	5.899560354604904	2.451982624139334	1.987972377786656	0	-24.74788768789517	-3.395140484746916	-11.58000132048591	9.793848132074926	-0.4439473045988533	4.250290820099795	0	-21.37711699760957	1.659277491615732	3.206407148933037	0	0	0	0.7943808944305757	-15.17644096947648	33.29329190139519	7.241689710231621	24.91969626355426	0	0.03307165419483859	5.884100462250121	-13.23040964208257	43.87200875419222	7.062495620794446	33.50259169147391	0	0.03307165419483859
3.901692	58.37733662387709	-9.836533303298571	-352.9134878278464	0.2341366603171506	0.04326292228651554	-1.326684523481465	-22.57117169827992	-1.591976316804377	-3.241458145969817	5.899560354604904	2.451982624139334	1.987972377786656	0	-24.74788768789517	-3.395140484746916	-11.58000132048591	9.793848132074926	-0.4439473045988533	4.250290820099795	0	-21.37711699760957	1.659277491615732	3.206407148933037	0	0	0	0.7951057220914703	-15.1764378579636	33.29238933074918	7.252638456085741	24.92190265715871	0	0.03406748062590281	5.88476201805453	-13.23044085661052	43.87067616272538	7.073720906295689	33.50368687167587	0	0.03406748062590281
4.0685343	49.13210846007239	-8.243622223598937	-357.7221738868479	0.2341366603171506	0.04326292228651554	-1.326684523481465	-22.57117169827992	-1.591976316804377	-3.241458145969817	5.899560354604904	2.451982624139334	1.987972377786656	0	-24.74788768789517	-3.395140484746916	-11.58000132048591	9.793848132074926	-0.4439473045988533	4.250290820099795	0	-21.37711699760957	1.659277491615732	3.206407148933037	0	0	0	0.7958996901899158	-15.17643444894544	33.29140023175238	7.264629938094073	24.92432163507595	0	0.03515933019467271	5.885486659137164	-13.23047505570259	43.86921568883952	7.086014368467715	33.5048875178083	0	0.03515933019467271
4.2344352	40.38398977288102	2.084394882834247	-332.5647845749359	0.2341366603171506	0.04326292228651554	-1.326684523481465	-22.57117169827992	-1.591976316804377	-3.241458145969817	5.899560354604904	2.451982624139334	1.987972377786656	0	-24.74788768789517	-3.395140484746916	-11.58000132048591	9.793848132074926	-0.4439473045988533	4.250290820099795	0	-21.37711699760957	1.659277491615732	3.206407148933037	0	0	0	0.7964624644212523	-15.17643204198748	33.2907052439399	7.272808052643311	24.92599971251533	0	0.03591411400138869	5.886000558578445	-13.23049920207287	43.86819159170886	7.094394385886784	33.50572257985042	0	0.03591411400138869
4.3993565	-11.6905245547219	12.60121833610532	-244.3683110759489	0.2341366603171506	0.04326292228651554	-1.326684523481465	-22.57117169827992	-1.591976316804377	-3.241458145969817	5.899560354604904	2.451982624139334	1.987972377786656	0	-24.74788768789517	-3.395140484746916	-11.58000132048591	9.793848132074926	-0.4439473045988533	4.250290820099795	0	-21.37711699760957	1.659277491615732	3.206407148933037	0	0	0	0.8112742112729541	-15.17636728643668	33.27152182075174	7.517686785919765	24.97500733744083	0	0.05821511830520459	5.899485813418568	-13.23114883918618	43.83963301578519	7.345234568017347	33.52987871391219	0	0.05821511830520459
4.5512695	-23.27311505949896	0.7138373312086165	-231.8250493881998	0.2341366603171506	0.04326292228651554	-1.326684523481465	-22.57117169827992	-1.591976316804377	-3.241458145969817	5.899560354604904	2.451982624139334	1.987972377786656	0	-24.74788768789517	-3.395140484746916	-11.58000132048591	9.793848132074926	-0.4439473045988533	4.250290820099795	0	-21.37711699760957	1.659277491615732	3.206407148933037	0	0	0	0.8118498332283368	-15.17636483505865	33.27081792516486	7.525486422563324	24.97667967423673	0	0.05896380931739758	5.900011747460091	-13.23117343105129	43.83859833576693	7.353211628600254	33.5307140835371	0	0.05896380931739758
4.7181991	-26.68409470418601	-2.02343603132728	-235.754936800533	0.2341366603171506	0.04326292228651554	-1.326684523481465	-22.57117169827992	-1.591976316804377	-3.241458145969817	5.899560354604904	2.451982624139334	1.987972377786656	0	-24.74788768789517	-3.395140484746916	-11.58000132048591	9.793848132074926	-0.4439473045988533	4.250290820099795	0	-21.37711699760957	1.659277491615732	3.206407148933037	0	0	0	0.8124065508848008	-15.176362457757	33.27013300310703	7.533211621348489	24.97832120699981	0	0.05970041887828459	5.900520227625352	-13.23119727986581	43.83759011926165	7.361113979796377	33.53153267013494	0	0.05970041887828459
4.8850811	-6.403349976747831	6.51377029244665	-271.3944517919548	0.2341366603171506	0.04326292228651554	-1.326684523481465	-22.57117169827992	-1.591976316804377	-3.241458145969817	5.899560354604904	2.451982624139334	1.987972377786656	0	-24.74788768789517	-3.395140484746916	-11.58000132048591	9.793848132074926	-0.4439473045988533	4.250290820099795	0	-21.37711699760957	1.659277491615732	3.206407148933037	0	0	0	0.8132189637997115	-15.17635895925954	33.26911461248426	7.545325862881008	24.98082656242758	0	0.06083231840744634	5.901261419790532	-13.23123237671769	43.83608457023924	7.373513206446391	33.53277573863829	0	0.06083231840744634
5.0514711	34.33594872435634	7.489860608283088	-310.4412758750493	0.2341366603171506	0.04326292228651554	-1.326684523481465	-22.57117169827992	-1.591976316804377	-3.241458145969817	5.899560354604904	2.451982624139334	1.987972377786656	0	-24.74788768789517	-3.395140484746916	-11.58000132048591	9.793848132074926	-0.4439473045988533	4.250290820099795	0	-21.37711699760957	1.659277491615732	3.206407148933037	0	0	0	0.8188710220203431	-15.17633429903753	33.2618284681496	7.634943716784615	24.99929036256367	0	0.06921376002284842	5.906408748671148	-13.23147977106004	43.8252505506203	7.465193354681843	33.54189578347614	0	0.06921376002284842
5.2163452	23.27374862550633	7.056470888863403	-287.4578736924163	0.2341366603171506	0.04326292228651554	-1.326684523481465	-22.57117169827992	-1.591976316804377	-3.241458145969817	5.899560354604904	2.451982624139334	1.987972377786656	0	-24.74788768789517	-3.395140484746916	-11.58000132048591	9.793848132074926	-0.4439473045988533	4.250290820099795	0	-21.37711699760957	1.659277491615732	3.206407148933037	0	0	0	0.8196687479046044	-15.17633087134283	33.2608334406299	7.646487647687368	25.00171999888596	0	0.07030924694065971	5.907136758694333	-13.23151415753312	43.82378128900897	7.477000495963408	33.54310330240099	0	0.07030924694065971
5.3682815	-1.503383538123075	0.4183492694581566	-259.751748209211	0.2341366603171506	0.04326292228651554	-1.326684523481465	-22.57117169827992	-1.591976316804377	-3.241458145969817	5.899560354604904	2.451982624139334	1.987972377786656	0	-24.74788768789517	-3.395140484746916	-11.58000132048591	9.793848132074926	-0.4439473045988533	4.250290820099795	0	-21.37711699760957	1.659277491615732	3.206407148933037	0	0	0	0.8204206382532861	-15.17632764413258	33.25989785770479	7.657264057693085	25.00399701814711	0	0.0713351026686749	5.907823039712841	-13.23154653271592	43.82240056572046	7.488021414665032	33.54423568754604	0	0.0713351026686749
